<?xml version="1.0" encoding="UTF-8" standalone="no"?>
<!-- Created with Inkscape (http://www.inkscape.org/) -->

<svg
   version="1.1"
   id="svg2"
   xml:space="preserve"
   width="391.20068"
   height="108.48227"
   viewBox="0 0 391.20068 108.48227"
   sodipodi:docname="parallel_module.svg"
   inkscape:version="1.1 (c68e22c387, 2021-05-23)"
   xmlns:inkscape="http://www.inkscape.org/namespaces/inkscape"
   xmlns:sodipodi="http://sodipodi.sourceforge.net/DTD/sodipodi-0.dtd"
   xmlns="http://www.w3.org/2000/svg"
   xmlns:svg="http://www.w3.org/2000/svg"><defs
     id="defs6"><clipPath
       clipPathUnits="userSpaceOnUse"
       id="clipPath16"><path
         d="M -7.629e-6,86.4 H 296.16 V 2.2888e-5 L -1.5259e-5,1.5259e-5"
         clip-rule="evenodd"
         id="path14" /></clipPath><clipPath
       clipPathUnits="userSpaceOnUse"
       id="clipPath26"><path
         d="M -2.2888e-5,86.4 H 296.16 V -7.629e-6 H -2.2888e-5"
         clip-rule="evenodd"
         id="path24" /></clipPath><clipPath
       clipPathUnits="userSpaceOnUse"
       id="clipPath38"><path
         d="M 4.413e-6,0 H 296.16 V 86.4 H 4.413e-6 Z"
         clip-rule="evenodd"
         id="path36" /></clipPath><clipPath
       clipPathUnits="userSpaceOnUse"
       id="clipPath50"><path
         d="M 4.413e-6,0 H 296.16 V 86.4 H 4.413e-6 Z"
         clip-rule="evenodd"
         id="path48" /></clipPath><clipPath
       clipPathUnits="userSpaceOnUse"
       id="clipPath62"><path
         d="M -3.0518e-5,86.4 H 296.16 V 1.5259e-5 L -3.8147e-5,7.629e-6"
         clip-rule="evenodd"
         id="path60" /></clipPath><clipPath
       clipPathUnits="userSpaceOnUse"
       id="clipPath72"><path
         d="M -7.629e-6,86.4 H 296.16 V 0 H 0"
         clip-rule="evenodd"
         id="path70" /></clipPath><clipPath
       clipPathUnits="userSpaceOnUse"
       id="clipPath82"><path
         d="M 4.413e-6,0 H 296.16 V 86.4 H 4.413e-6 Z"
         clip-rule="evenodd"
         id="path80" /></clipPath><clipPath
       clipPathUnits="userSpaceOnUse"
       id="clipPath94"><path
         d="M 4.413e-6,0 H 296.16 V 86.4 H 4.413e-6 Z"
         clip-rule="evenodd"
         id="path92" /></clipPath><clipPath
       clipPathUnits="userSpaceOnUse"
       id="clipPath106"><path
         d="M -4.5776e-5,86.4 H 296.16 V -7.629e-6 H -4.5776e-5"
         clip-rule="evenodd"
         id="path104" /></clipPath><clipPath
       clipPathUnits="userSpaceOnUse"
       id="clipPath116"><path
         d="M -4.5776e-5,86.4 H 296.16 V 2.2888e-5 L -6.1035e-5,1.5259e-5"
         clip-rule="evenodd"
         id="path114" /></clipPath><clipPath
       clipPathUnits="userSpaceOnUse"
       id="clipPath128"><path
         d="M -4.5776e-5,86.4 H 296.16 V -7.629e-6 L -3.0518e-5,0"
         clip-rule="evenodd"
         id="path126" /></clipPath><clipPath
       clipPathUnits="userSpaceOnUse"
       id="clipPath138"><path
         d="M 4.413e-6,0 H 296.16 V 86.4 H 4.413e-6 Z"
         clip-rule="evenodd"
         id="path136" /></clipPath><clipPath
       clipPathUnits="userSpaceOnUse"
       id="clipPath150"><path
         d="M 4.413e-6,0 H 296.16 V 86.4 H 4.413e-6 Z"
         clip-rule="evenodd"
         id="path148" /></clipPath><clipPath
       clipPathUnits="userSpaceOnUse"
       id="clipPath162"><path
         d="M -1.5259e-5,86.4 H 296.16 V 2.2888e-5 L -3.0518e-5,1.5259e-5"
         clip-rule="evenodd"
         id="path160" /></clipPath><clipPath
       clipPathUnits="userSpaceOnUse"
       id="clipPath172"><path
         d="M 4.413e-6,0 H 296.16 V 86.4 H 4.413e-6 Z"
         clip-rule="evenodd"
         id="path170" /></clipPath><clipPath
       clipPathUnits="userSpaceOnUse"
       id="clipPath184"><path
         d="M 4.413e-6,0 H 296.16 V 86.4 H 4.413e-6 Z"
         clip-rule="evenodd"
         id="path182" /></clipPath><clipPath
       clipPathUnits="userSpaceOnUse"
       id="clipPath196"><path
         d="M 0,86.4 H 296.16 V -7.629e-6 H 0"
         clip-rule="evenodd"
         id="path194" /></clipPath><clipPath
       clipPathUnits="userSpaceOnUse"
       id="clipPath206"><path
         d="M -1.5259e-5,86.4 H 296.16 V -7.629e-6 L 0,0"
         clip-rule="evenodd"
         id="path204" /></clipPath><clipPath
       clipPathUnits="userSpaceOnUse"
       id="clipPath236"><path
         d="M -1.5259e-5,86.4 H 296.16 V -7.629e-6 L -1.5259e-5,0"
         clip-rule="evenodd"
         id="path234" /></clipPath><clipPath
       clipPathUnits="userSpaceOnUse"
       id="clipPath246"><path
         d="M 0,86.4 H 296.16 V 0 H 0"
         clip-rule="evenodd"
         id="path244" /></clipPath><clipPath
       clipPathUnits="userSpaceOnUse"
       id="clipPath256"><path
         d="M 0,86.4 H 296.16 V 0 H 0"
         clip-rule="evenodd"
         id="path254" /></clipPath><clipPath
       clipPathUnits="userSpaceOnUse"
       id="clipPath268"><path
         d="M 0,86.4 H 296.16 V 0 H 0"
         clip-rule="evenodd"
         id="path266" /></clipPath><clipPath
       clipPathUnits="userSpaceOnUse"
       id="clipPath278"><path
         d="M 0,86.4 H 296.16 V -1.5259e-5 H 0"
         clip-rule="evenodd"
         id="path276" /></clipPath><clipPath
       clipPathUnits="userSpaceOnUse"
       id="clipPath288"><path
         d="M 0,86.4 H 296.16 V -7.629e-6 H 0"
         clip-rule="evenodd"
         id="path286" /></clipPath><clipPath
       clipPathUnits="userSpaceOnUse"
       id="clipPath298"><path
         d="M 0,86.4 H 296.16 V 0 H 0"
         clip-rule="evenodd"
         id="path296" /></clipPath><clipPath
       clipPathUnits="userSpaceOnUse"
       id="clipPath308"><path
         d="M -1.1444e-5,86.4 H 296.16 V -7.629e-6 H -7.629e-6"
         clip-rule="evenodd"
         id="path306" /></clipPath><clipPath
       clipPathUnits="userSpaceOnUse"
       id="clipPath318"><path
         d="M -1.1444e-5,86.4 H 296.16 V -7.629e-6 H -7.629e-6"
         clip-rule="evenodd"
         id="path316" /></clipPath><clipPath
       clipPathUnits="userSpaceOnUse"
       id="clipPath328"><path
         d="M -1.1444e-5,86.4 H 296.16 V 1.5259e-5 L -1.1444e-5,7.629e-6"
         clip-rule="evenodd"
         id="path326" /></clipPath><clipPath
       clipPathUnits="userSpaceOnUse"
       id="clipPath338"><path
         d="M -1.1444e-5,86.4 H 296.16 V 1.5259e-5 L -1.1444e-5,7.629e-6"
         clip-rule="evenodd"
         id="path336" /></clipPath><clipPath
       clipPathUnits="userSpaceOnUse"
       id="clipPath348"><path
         d="M 4.413e-6,0 H 296.16 V 86.4 H 4.413e-6 Z"
         clip-rule="evenodd"
         id="path346" /></clipPath><clipPath
       clipPathUnits="userSpaceOnUse"
       id="clipPath360"><path
         d="M 4.413e-6,0 H 296.16 V 86.4 H 4.413e-6 Z"
         clip-rule="evenodd"
         id="path358" /></clipPath><clipPath
       clipPathUnits="userSpaceOnUse"
       id="clipPath372"><path
         d="M 4.413e-6,0 H 296.16 V 86.4 H 4.413e-6 Z"
         clip-rule="evenodd"
         id="path370" /></clipPath><clipPath
       clipPathUnits="userSpaceOnUse"
       id="clipPath384"><path
         d="M 4.413e-6,0 H 296.16 V 86.4 H 4.413e-6 Z"
         clip-rule="evenodd"
         id="path382" /></clipPath><clipPath
       clipPathUnits="userSpaceOnUse"
       id="clipPath396"><path
         d="M 4.413e-6,0 H 296.16 V 86.4 H 4.413e-6 Z"
         clip-rule="evenodd"
         id="path394" /></clipPath><clipPath
       clipPathUnits="userSpaceOnUse"
       id="clipPath408"><path
         d="M 4.413e-6,0 H 296.16 V 86.4 H 4.413e-6 Z"
         clip-rule="evenodd"
         id="path406" /></clipPath><clipPath
       clipPathUnits="userSpaceOnUse"
       id="clipPath420"><path
         d="M 4.413e-6,0 H 296.16 V 86.4 H 4.413e-6 Z"
         clip-rule="evenodd"
         id="path418" /></clipPath><clipPath
       clipPathUnits="userSpaceOnUse"
       id="clipPath432"><path
         d="M 4.413e-6,0 H 296.16 V 86.4 H 4.413e-6 Z"
         clip-rule="evenodd"
         id="path430" /></clipPath><clipPath
       clipPathUnits="userSpaceOnUse"
       id="clipPath444"><path
         d="M 4.413e-6,0 H 296.16 V 86.4 H 4.413e-6 Z"
         clip-rule="evenodd"
         id="path442" /></clipPath><clipPath
       clipPathUnits="userSpaceOnUse"
       id="clipPath456"><path
         d="M 4.413e-6,0 H 296.16 V 86.4 H 4.413e-6 Z"
         clip-rule="evenodd"
         id="path454" /></clipPath><clipPath
       clipPathUnits="userSpaceOnUse"
       id="clipPath464"><path
         d="M 4.413e-6,0 H 296.16 V 86.4 H 4.413e-6 Z"
         clip-rule="evenodd"
         id="path462" /></clipPath><clipPath
       clipPathUnits="userSpaceOnUse"
       id="clipPath476"><path
         d="M -3.815e-6,86.4 H 296.16 V 4.5776e-5 L -5.722e-6,2.2888e-5"
         clip-rule="evenodd"
         id="path474" /></clipPath><clipPath
       clipPathUnits="userSpaceOnUse"
       id="clipPath486"><path
         d="M -3.815e-6,86.4 H 296.16 V 4.5776e-5 L -5.722e-6,2.2888e-5"
         clip-rule="evenodd"
         id="path484" /></clipPath><clipPath
       clipPathUnits="userSpaceOnUse"
       id="clipPath496"><path
         d="M -1.907e-6,86.4 H 296.16 V -2.2888e-5 L 1.907e-6,0"
         clip-rule="evenodd"
         id="path494" /></clipPath><clipPath
       clipPathUnits="userSpaceOnUse"
       id="clipPath506"><path
         d="M -1.907e-6,86.4 H 296.16 V -2.2888e-5 L 1.907e-6,0"
         clip-rule="evenodd"
         id="path504" /></clipPath></defs><sodipodi:namedview
     id="namedview4"
     pagecolor="#ffffff"
     bordercolor="#666666"
     borderopacity="1.0"
     inkscape:pageshadow="2"
     inkscape:pageopacity="0.0"
     inkscape:pagecheckerboard="0"
     showgrid="false"
     fit-margin-top="0"
     fit-margin-left="0"
     fit-margin-right="0"
     fit-margin-bottom="0"
     inkscape:zoom="2.8059157"
     inkscape:cx="195.12347"
     inkscape:cy="52.21112"
     inkscape:window-width="2560"
     inkscape:window-height="1369"
     inkscape:window-x="1912"
     inkscape:window-y="-8"
     inkscape:window-maximized="1"
     inkscape:current-layer="g8" /><g
     id="g8"
     inkscape:groupmode="layer"
     inkscape:label="parallel_module"
     transform="matrix(1.3333333,0,0,-1.3333333,-2.0393125,109.68693)"><g
       id="g10"><g
         id="g12"
         clip-path="url(#clipPath16)"><path
           d="m 68.49,63.556 2.119,5.161 4.345,-10.277 4.239,10.321 4.344,-10.276 4.237,10.321 4.345,-10.276 2.119,5.161"
           style="fill:none;stroke:#000000;stroke-width:1;stroke-linecap:round;stroke-linejoin:round;stroke-miterlimit:10;stroke-dasharray:none;stroke-opacity:1"
           id="path18" /></g></g><g
       id="g20"><g
         id="g22"
         clip-path="url(#clipPath26)"><path
           d="M 104.77,63.785 94.238,63.691"
           style="fill:none;stroke:#000000;stroke-width:1;stroke-linecap:round;stroke-linejoin:round;stroke-miterlimit:10;stroke-dasharray:none;stroke-opacity:1"
           id="path28" /></g></g><path
       d="M 68.49,63.556 H 44.868"
       style="fill:none;stroke:#000000;stroke-width:1;stroke-linecap:round;stroke-linejoin:round;stroke-miterlimit:10;stroke-dasharray:none;stroke-opacity:1"
       id="path30" /><g
       id="g32"><g
         id="g34"
         clip-path="url(#clipPath38)"><text
           transform="matrix(1,0,0,-1,75.456,74.304)"
           style="font-variant:normal;font-weight:normal;font-size:12.024px;font-family:'Times New Roman';-inkscape-font-specification:TimesNewRomanPSMT;writing-mode:lr-tb;fill:#000000;fill-opacity:1;fill-rule:nonzero;stroke:none"
           id="text42"><tspan
             x="0"
             y="0"
             id="tspan40">R</tspan></text></g></g><g
       id="g44"><g
         id="g46"
         clip-path="url(#clipPath50)"><text
           transform="matrix(1,0,0,-1,83.448,72.576)"
           style="font-variant:normal;font-weight:normal;font-size:7.8px;font-family:'Times New Roman';-inkscape-font-specification:TimesNewRomanPSMT;writing-mode:lr-tb;fill:#000000;fill-opacity:1;fill-rule:nonzero;stroke:none"
           id="text54"><tspan
             x="0"
             y="0"
             id="tspan52">1</tspan></text></g></g><g
       id="g56"><g
         id="g58"
         clip-path="url(#clipPath62)"><path
           d="m 122.35,63.764 2.12,5.16 4.34,-10.276 4.24,10.321 4.35,-10.276 4.23,10.321 4.35,-10.276 2.12,5.161"
           style="fill:none;stroke:#000000;stroke-width:1;stroke-linecap:round;stroke-linejoin:round;stroke-miterlimit:10;stroke-dasharray:none;stroke-opacity:1"
           id="path64" /></g></g><g
       id="g66"><g
         id="g68"
         clip-path="url(#clipPath72)"><path
           d="m 122.35,63.764 -17.58,0.021"
           style="fill:none;stroke:#000000;stroke-width:1;stroke-linecap:round;stroke-linejoin:round;stroke-miterlimit:10;stroke-dasharray:none;stroke-opacity:1"
           id="path74" /></g></g><g
       id="g76"><g
         id="g78"
         clip-path="url(#clipPath82)"><text
           transform="matrix(1,0,0,-1,129.34,74.304)"
           style="font-variant:normal;font-weight:normal;font-size:12.024px;font-family:'Times New Roman';-inkscape-font-specification:TimesNewRomanPSMT;writing-mode:lr-tb;fill:#000000;fill-opacity:1;fill-rule:nonzero;stroke:none"
           id="text86"><tspan
             x="0"
             y="0"
             id="tspan84">R</tspan></text></g></g><g
       id="g88"><g
         id="g90"
         clip-path="url(#clipPath94)"><text
           transform="matrix(1,0,0,-1,137.33,72.576)"
           style="font-variant:normal;font-weight:normal;font-size:7.8px;font-family:'Times New Roman';-inkscape-font-specification:TimesNewRomanPSMT;writing-mode:lr-tb;fill:#000000;fill-opacity:1;fill-rule:nonzero;stroke:none"
           id="text98"><tspan
             x="0"
             y="0"
             id="tspan96">2</tspan></text></g></g><g
       id="g100"><g
         id="g102"
         clip-path="url(#clipPath106)"><path
           d="M 158.63,63.993 148.1,63.899"
           style="fill:none;stroke:#000000;stroke-width:1;stroke-linecap:round;stroke-linejoin:round;stroke-miterlimit:10;stroke-dasharray:none;stroke-opacity:1"
           id="path108" /></g></g><g
       id="g110"><g
         id="g112"
         clip-path="url(#clipPath116)"><path
           d="m 180.18,63.814 2.11,5.161 4.35,-10.277 4.24,10.322 4.34,-10.277 4.24,10.322 4.34,-10.277 2.12,5.161"
           style="fill:none;stroke:#000000;stroke-width:1;stroke-linecap:round;stroke-linejoin:round;stroke-miterlimit:10;stroke-dasharray:none;stroke-opacity:1"
           id="path118" /></g></g><path
       d="M 218.63,63.949 H 205.92"
       style="fill:none;stroke:#000000;stroke-width:1;stroke-linecap:round;stroke-linejoin:round;stroke-miterlimit:10;stroke-dasharray:none;stroke-opacity:1"
       id="path120" /><g
       id="g122"><g
         id="g124"
         clip-path="url(#clipPath128)"><path
           d="m 180.18,63.814 -21.55,0.179"
           style="fill:none;stroke:#000000;stroke-width:1;stroke-linecap:round;stroke-linejoin:round;stroke-miterlimit:10;stroke-dasharray:none;stroke-opacity:1"
           id="path130" /></g></g><g
       id="g132"><g
         id="g134"
         clip-path="url(#clipPath138)"><text
           transform="matrix(1,0,0,-1,187.18,74.304)"
           style="font-variant:normal;font-weight:normal;font-size:12.024px;font-family:'Times New Roman';-inkscape-font-specification:TimesNewRomanPSMT;writing-mode:lr-tb;fill:#000000;fill-opacity:1;fill-rule:nonzero;stroke:none"
           id="text142"><tspan
             x="0"
             y="0"
             id="tspan140">R</tspan></text></g></g><g
       id="g144"><g
         id="g146"
         clip-path="url(#clipPath150)"><text
           transform="matrix(1,0,0,-1,195.19,72.576)"
           style="font-variant:normal;font-weight:normal;font-size:7.8px;font-family:'Times New Roman';-inkscape-font-specification:TimesNewRomanPSMT;writing-mode:lr-tb;fill:#000000;fill-opacity:1;fill-rule:nonzero;stroke:none"
           id="text154"><tspan
             x="0"
             y="0"
             id="tspan152">3</tspan></text></g></g><g
       id="g156"><g
         id="g158"
         clip-path="url(#clipPath162)"><path
           d="m 240.18,63.77 2.11,5.161 4.35,-10.277 4.24,10.322 4.34,-10.277 4.24,10.322 4.34,-10.277 2.12,5.161"
           style="fill:none;stroke:#000000;stroke-width:1;stroke-linecap:round;stroke-linejoin:round;stroke-miterlimit:10;stroke-dasharray:none;stroke-opacity:1"
           id="path164" /></g></g><g
       id="g166"><g
         id="g168"
         clip-path="url(#clipPath172)"><text
           transform="matrix(1,0,0,-1,247.2,74.304)"
           style="font-variant:normal;font-weight:normal;font-size:12.024px;font-family:'Times New Roman';-inkscape-font-specification:TimesNewRomanPSMT;writing-mode:lr-tb;fill:#000000;fill-opacity:1;fill-rule:nonzero;stroke:none"
           id="text176"><tspan
             x="0"
             y="0"
             id="tspan174">R</tspan></text></g></g><g
       id="g178"><g
         id="g180"
         clip-path="url(#clipPath184)"><text
           transform="matrix(1,0,0,-1,255.22,72.576)"
           style="font-variant:normal;font-weight:normal;font-size:7.8px;font-family:'Times New Roman';-inkscape-font-specification:TimesNewRomanPSMT;writing-mode:lr-tb;fill:#000000;fill-opacity:1;fill-rule:nonzero;stroke:none"
           id="text188"><tspan
             x="0"
             y="0"
             id="tspan186">4</tspan></text></g></g><g
       id="g190"><g
         id="g192"
         clip-path="url(#clipPath196)"><path
           d="M 286.19,43.864 V 63.881"
           style="fill:none;stroke:#000000;stroke-width:1;stroke-linecap:round;stroke-linejoin:round;stroke-miterlimit:10;stroke-dasharray:none;stroke-opacity:1"
           id="path198" /></g></g><g
       id="g200"><g
         id="g202"
         clip-path="url(#clipPath206)"><path
           d="m 240.18,63.77 -21.55,0.179"
           style="fill:none;stroke:#000000;stroke-width:1;stroke-linecap:round;stroke-linejoin:round;stroke-miterlimit:10;stroke-dasharray:none;stroke-opacity:1"
           id="path208" /></g></g><path
       d="M 278.63,63.905 H 265.92"
       style="fill:none;stroke:#000000;stroke-width:1;stroke-linecap:round;stroke-linejoin:round;stroke-miterlimit:10;stroke-dasharray:none;stroke-opacity:1"
       id="path210" /><path
       d="m 286.09,63.905 h -7.46"
       style="fill:none;stroke:#000000;stroke-width:1;stroke-linecap:round;stroke-linejoin:round;stroke-miterlimit:10;stroke-dasharray:none;stroke-opacity:1"
       id="path212" /><path
       d="m 117.43,32.619 v 1.988 h -17.39 v -1.988 z m 0,-3.975 v 1.987 h -17.39 v -1.987 z"
       style="fill:#000000;fill-opacity:1;fill-rule:evenodd;stroke:none"
       id="path214" /><path
       d="m 108.69,19.203 v 9.689 m 0,5.466 v 9.689"
       style="fill:none;stroke:#000000;stroke-width:0.99378;stroke-linecap:butt;stroke-linejoin:miter;stroke-miterlimit:2;stroke-dasharray:none;stroke-opacity:1"
       id="path216" /><path
       d="m 169.68,32.619 v 1.988 h -17.39 v -1.988 z m 0,-3.975 v 1.987 h -17.39 v -1.987 z"
       style="fill:#000000;fill-opacity:1;fill-rule:evenodd;stroke:none"
       id="path218" /><path
       d="m 160.95,19.203 v 9.689 m 0,5.466 v 9.689"
       style="fill:none;stroke:#000000;stroke-width:0.99378;stroke-linecap:butt;stroke-linejoin:miter;stroke-miterlimit:2;stroke-dasharray:none;stroke-opacity:1"
       id="path220" /><path
       d="m 231.48,32.619 v 1.988 h -17.39 v -1.988 z m 0,-3.975 v 1.987 h -17.39 v -1.987 z"
       style="fill:#000000;fill-opacity:1;fill-rule:evenodd;stroke:none"
       id="path222" /><path
       d="m 222.75,19.203 v 9.689 m 0,5.466 v 9.689"
       style="fill:none;stroke:#000000;stroke-width:0.99378;stroke-linecap:butt;stroke-linejoin:miter;stroke-miterlimit:2;stroke-dasharray:none;stroke-opacity:1"
       id="path224" /><path
       d="m 294.93,32.619 v 1.988 h -17.39 v -1.988 z m 0,-3.975 v 1.987 h -17.39 v -1.987 z"
       style="fill:#000000;fill-opacity:1;fill-rule:evenodd;stroke:none"
       id="path226" /><path
       d="m 286.19,19.203 v 9.689 m 0,5.466 v 9.689"
       style="fill:none;stroke:#000000;stroke-width:0.99378;stroke-linecap:butt;stroke-linejoin:miter;stroke-miterlimit:2;stroke-dasharray:none;stroke-opacity:1"
       id="path228" /><g
       id="g230"><g
         id="g232"
         clip-path="url(#clipPath236)"><path
           d="m 222.75,44.047 -0.24,19.869"
           style="fill:none;stroke:#000000;stroke-width:1;stroke-linecap:round;stroke-linejoin:round;stroke-miterlimit:2;stroke-dasharray:none;stroke-opacity:1"
           id="path238" /></g></g><g
       id="g240"><g
         id="g242"
         clip-path="url(#clipPath246)"><path
           d="M 160.95,44.047 V 63.973"
           style="fill:none;stroke:#000000;stroke-width:1;stroke-linecap:round;stroke-linejoin:round;stroke-miterlimit:2;stroke-dasharray:none;stroke-opacity:1"
           id="path248" /></g></g><g
       id="g250"><g
         id="g252"
         clip-path="url(#clipPath256)"><path
           d="M 108.69,44.047 V 63.78"
           style="fill:none;stroke:#000000;stroke-width:1;stroke-linecap:round;stroke-linejoin:round;stroke-miterlimit:2;stroke-dasharray:none;stroke-opacity:1"
           id="path258" /></g></g><path
       d="M 286.17,5.0298 H 44.868"
       style="fill:none;stroke:#000000;stroke-width:1;stroke-linecap:round;stroke-linejoin:round;stroke-miterlimit:2;stroke-dasharray:none;stroke-opacity:1"
       id="path260" /><g
       id="g262"><g
         id="g264"
         clip-path="url(#clipPath268)"><path
           d="M 286.19,5.1037 V 19.203"
           style="fill:none;stroke:#000000;stroke-width:1;stroke-linecap:round;stroke-linejoin:round;stroke-miterlimit:2;stroke-dasharray:none;stroke-opacity:1"
           id="path270" /></g></g><g
       id="g272"><g
         id="g274"
         clip-path="url(#clipPath278)"><path
           d="M 222.75,5.1432 V 19.203"
           style="fill:none;stroke:#000000;stroke-width:1;stroke-linecap:round;stroke-linejoin:round;stroke-miterlimit:2;stroke-dasharray:none;stroke-opacity:1"
           id="path280" /></g></g><g
       id="g282"><g
         id="g284"
         clip-path="url(#clipPath288)"><path
           d="M 160.95,5.1606 V 19.203"
           style="fill:none;stroke:#000000;stroke-width:1;stroke-linecap:round;stroke-linejoin:round;stroke-miterlimit:2;stroke-dasharray:none;stroke-opacity:1"
           id="path290" /></g></g><g
       id="g292"><g
         id="g294"
         clip-path="url(#clipPath298)"><path
           d="M 108.69,5.0298 V 19.203"
           style="fill:none;stroke:#000000;stroke-width:1;stroke-linecap:round;stroke-linejoin:round;stroke-miterlimit:2;stroke-dasharray:none;stroke-opacity:1"
           id="path300" /></g></g><g
       id="g302"><g
         id="g304"
         clip-path="url(#clipPath308)"><path
           d="M 43.937,5.0187 C 43.943,3.8445 44.9,2.8977 46.074,2.9039 47.248,2.91 48.195,3.8668 48.189,5.0409 48.183,6.2151 47.226,7.1619 46.052,7.1558 44.878,7.1496 43.931,6.1928 43.937,5.0187 Z"
           style="fill:#ff0000;fill-opacity:1;fill-rule:evenodd;stroke:none"
           id="path310" /></g></g><g
       id="g312"><g
         id="g314"
         clip-path="url(#clipPath318)"><path
           d="M 43.937,5.0187 C 43.943,3.8445 44.9,2.8977 46.074,2.9039 47.248,2.91 48.195,3.8668 48.189,5.0409 48.183,6.2151 47.226,7.1619 46.052,7.1558 44.878,7.1496 43.931,6.1928 43.937,5.0187 Z"
           style="fill:none;stroke:#0070c0;stroke-width:4;stroke-linecap:round;stroke-linejoin:round;stroke-miterlimit:2;stroke-dasharray:none;stroke-opacity:1"
           id="path320" /></g></g><g
       id="g322"><g
         id="g324"
         clip-path="url(#clipPath328)"><path
           d="m 48.189,63.634 c -0.006,1.174 -0.963,2.121 -2.137,2.115 -1.174,-0.006 -2.121,-0.963 -2.115,-2.137 0.006,-1.174 0.963,-2.121 2.137,-2.115 1.174,0.006 2.121,0.963 2.115,2.137 z"
           style="fill:#ff0000;fill-opacity:1;fill-rule:evenodd;stroke:none"
           id="path330" /></g></g><g
       id="g332"><g
         id="g334"
         clip-path="url(#clipPath338)"><path
           d="m 48.189,63.634 c -0.006,1.174 -0.963,2.121 -2.137,2.115 -1.174,-0.006 -2.121,-0.963 -2.115,-2.137 0.006,-1.174 0.963,-2.121 2.137,-2.115 1.174,0.006 2.121,0.963 2.115,2.137 z"
           style="fill:none;stroke:#0070c0;stroke-width:4;stroke-linecap:round;stroke-linejoin:round;stroke-miterlimit:2;stroke-dasharray:none;stroke-opacity:1"
           id="path340" /></g></g><g
       id="g342"><g
         id="g344"
         clip-path="url(#clipPath348)"><text
           transform="matrix(1,0,0,-1,78.456,27.936)"
           style="font-variant:normal;font-weight:normal;font-size:12.024px;font-family:'Times New Roman';-inkscape-font-specification:TimesNewRomanPSMT;writing-mode:lr-tb;fill:#000000;fill-opacity:1;fill-rule:nonzero;stroke:none"
           id="text352"><tspan
             x="0 6.7200441"
             y="0"
             sodipodi:role="line"
             id="tspan350">SU</tspan></text></g></g><g
       id="g354"><g
         id="g356"
         clip-path="url(#clipPath360)"><text
           transform="matrix(1,0,0,-1,93.792,26.208)"
           style="font-variant:normal;font-weight:normal;font-size:7.8px;font-family:'Times New Roman';-inkscape-font-specification:TimesNewRomanPSMT;writing-mode:lr-tb;fill:#000000;fill-opacity:1;fill-rule:nonzero;stroke:none"
           id="text364"><tspan
             x="0"
             y="0"
             id="tspan362">1</tspan></text></g></g><g
       id="g366"><g
         id="g368"
         clip-path="url(#clipPath372)"><text
           transform="matrix(1,0,0,-1,131.04,27.936)"
           style="font-variant:normal;font-weight:normal;font-size:12.024px;font-family:'Times New Roman';-inkscape-font-specification:TimesNewRomanPSMT;writing-mode:lr-tb;fill:#000000;fill-opacity:1;fill-rule:nonzero;stroke:none"
           id="text376"><tspan
             x="0 6.7200441"
             y="0"
             sodipodi:role="line"
             id="tspan374">SU</tspan></text></g></g><g
       id="g378"><g
         id="g380"
         clip-path="url(#clipPath384)"><text
           transform="matrix(1,0,0,-1,146.38,26.208)"
           style="font-variant:normal;font-weight:normal;font-size:7.8px;font-family:'Times New Roman';-inkscape-font-specification:TimesNewRomanPSMT;writing-mode:lr-tb;fill:#000000;fill-opacity:1;fill-rule:nonzero;stroke:none"
           id="text388"><tspan
             x="0"
             y="0"
             id="tspan386">2</tspan></text></g></g><g
       id="g390"><g
         id="g392"
         clip-path="url(#clipPath396)"><text
           transform="matrix(1,0,0,-1,192.84,27.936)"
           style="font-variant:normal;font-weight:normal;font-size:12.024px;font-family:'Times New Roman';-inkscape-font-specification:TimesNewRomanPSMT;writing-mode:lr-tb;fill:#000000;fill-opacity:1;fill-rule:nonzero;stroke:none"
           id="text400"><tspan
             x="0 6.7200441"
             y="0"
             sodipodi:role="line"
             id="tspan398">SU</tspan></text></g></g><g
       id="g402"><g
         id="g404"
         clip-path="url(#clipPath408)"><text
           transform="matrix(1,0,0,-1,208.18,26.208)"
           style="font-variant:normal;font-weight:normal;font-size:7.8px;font-family:'Times New Roman';-inkscape-font-specification:TimesNewRomanPSMT;writing-mode:lr-tb;fill:#000000;fill-opacity:1;fill-rule:nonzero;stroke:none"
           id="text412"><tspan
             x="0"
             y="0"
             id="tspan410">3</tspan></text></g></g><g
       id="g414"><g
         id="g416"
         clip-path="url(#clipPath420)"><text
           transform="matrix(1,0,0,-1,256.63,27.936)"
           style="font-variant:normal;font-weight:normal;font-size:12.024px;font-family:'Times New Roman';-inkscape-font-specification:TimesNewRomanPSMT;writing-mode:lr-tb;fill:#000000;fill-opacity:1;fill-rule:nonzero;stroke:none"
           id="text424"><tspan
             x="0 6.7200441"
             y="0"
             sodipodi:role="line"
             id="tspan422">SU</tspan></text></g></g><g
       id="g426"><g
         id="g428"
         clip-path="url(#clipPath432)"><text
           transform="matrix(1,0,0,-1,271.99,26.208)"
           style="font-variant:normal;font-weight:normal;font-size:7.8px;font-family:'Times New Roman';-inkscape-font-specification:TimesNewRomanPSMT;writing-mode:lr-tb;fill:#000000;fill-opacity:1;fill-rule:nonzero;stroke:none"
           id="text436"><tspan
             x="0"
             y="0"
             id="tspan434">4</tspan></text></g></g><g
       id="g438"><g
         id="g440"
         clip-path="url(#clipPath444)"><text
           transform="matrix(1,0,0,-1,1.296,38.448)"
           style="font-variant:normal;font-weight:normal;font-size:14.064px;font-family:'Times New Roman';-inkscape-font-specification:TimesNewRomanPSMT;writing-mode:lr-tb;fill:#0070c0;fill-opacity:1;fill-rule:nonzero;stroke:none"
           id="text448"><tspan
             x="0 7.8195839 14.064 18.747313 24.837025 28.789007 32.628479 38.872894"
             y="0"
             sodipodi:role="line"
             id="tspan446">Parallel</tspan></text></g></g><g
       id="g450"><g
         id="g452"
         clip-path="url(#clipPath456)" /></g><g
       id="g458"><g
         id="g460"
         clip-path="url(#clipPath464)"><text
           transform="matrix(1,0,0,-1,1.68,21.624)"
           style="font-variant:normal;font-weight:normal;font-size:14.064px;font-family:'Times New Roman';-inkscape-font-specification:TimesNewRomanPSMT;writing-mode:lr-tb;fill:#0070c0;fill-opacity:1;fill-rule:nonzero;stroke:none"
           id="text468"><tspan
             x="0 10.941792 17.875343 24.837025 31.897152 35.736626"
             y="0"
             sodipodi:role="line"
             id="tspan466">module</tspan></text></g></g><g
       id="g470"><g
         id="g472"
         clip-path="url(#clipPath476)"><path
           d="M 22.677,14.117 C 23.997,9.7168 26.555,6.6432 30.01,5.3056"
           style="fill:none;stroke:#0070c0;stroke-width:1;stroke-linecap:round;stroke-linejoin:round;stroke-miterlimit:2;stroke-dasharray:none;stroke-opacity:1"
           id="path478" /></g></g><g
       id="g480"><g
         id="g482"
         clip-path="url(#clipPath486)"><path
           d="M 29.019,8.7959 39.685,5.6127 29.242,1.7595 Z"
           style="fill:#0070c0;fill-opacity:1;fill-rule:evenodd;stroke:none"
           id="path488" /></g></g><g
       id="g490"><g
         id="g492"
         clip-path="url(#clipPath496)"><path
           d="m 22.677,55.219 c 1.32,4.4 3.878,7.473 7.333,8.811"
           style="fill:none;stroke:#0070c0;stroke-width:1;stroke-linecap:round;stroke-linejoin:round;stroke-miterlimit:2;stroke-dasharray:none;stroke-opacity:1"
           id="path498" /></g></g><g
       id="g500"><g
         id="g502"
         clip-path="url(#clipPath506)"><path
           d="m 29.019,60.54 10.666,3.183 -10.443,3.853 z"
           style="fill:#0070c0;fill-opacity:1;fill-rule:evenodd;stroke:none"
           id="path508" /></g></g></g></svg>
