<?xml version="1.0" encoding="UTF-8" standalone="no"?>
<!-- Created with Inkscape (http://www.inkscape.org/) -->

<svg
   version="1.1"
   id="svg2"
   xml:space="preserve"
   width="444.5108"
   height="90.547783"
   viewBox="0 0 444.5108 90.547783"
   sodipodi:docname="series_module.svg"
   inkscape:version="1.1 (c68e22c387, 2021-05-23)"
   xmlns:inkscape="http://www.inkscape.org/namespaces/inkscape"
   xmlns:sodipodi="http://sodipodi.sourceforge.net/DTD/sodipodi-0.dtd"
   xmlns="http://www.w3.org/2000/svg"
   xmlns:svg="http://www.w3.org/2000/svg"><defs
     id="defs6"><clipPath
       clipPathUnits="userSpaceOnUse"
       id="clipPath16"><path
         d="M 0,73.68 H 334.44 V 0 H 0"
         clip-rule="evenodd"
         id="path14" /></clipPath><clipPath
       clipPathUnits="userSpaceOnUse"
       id="clipPath26"><path
         d="M 3.0518e-5,73.68 H 334.44 V 0 H 3.0518e-5"
         clip-rule="evenodd"
         id="path24" /></clipPath><clipPath
       clipPathUnits="userSpaceOnUse"
       id="clipPath36"><path
         d="M -2.38e-7,73.68 H 334.44 V 3.0518e-5 L -4.77e-7,2.2888e-5"
         clip-rule="evenodd"
         id="path34" /></clipPath><clipPath
       clipPathUnits="userSpaceOnUse"
       id="clipPath46"><path
         d="M -2.38e-7,73.68 H 334.44 V 3.0518e-5 L -4.77e-7,2.2888e-5"
         clip-rule="evenodd"
         id="path44" /></clipPath><clipPath
       clipPathUnits="userSpaceOnUse"
       id="clipPath56"><path
         d="M -6.1035e-5,73.68 H 334.44 V 2.2888e-5 L -6.1035e-5,1.5259e-5"
         clip-rule="evenodd"
         id="path54" /></clipPath><clipPath
       clipPathUnits="userSpaceOnUse"
       id="clipPath66"><path
         d="M -6.1035e-5,73.68 H 334.44 V 2.2888e-5 L -6.1035e-5,1.5259e-5"
         clip-rule="evenodd"
         id="path64" /></clipPath><clipPath
       clipPathUnits="userSpaceOnUse"
       id="clipPath76"><path
         d="M -1.5259e-5,73.68 H 334.44 V 0 L -7.629e-6,7.629e-6"
         clip-rule="evenodd"
         id="path74" /></clipPath><clipPath
       clipPathUnits="userSpaceOnUse"
       id="clipPath86"><path
         d="M -1.5259e-5,73.68 H 334.44 V 0 L -7.629e-6,7.629e-6"
         clip-rule="evenodd"
         id="path84" /></clipPath><clipPath
       clipPathUnits="userSpaceOnUse"
       id="clipPath96"><path
         d="M 4.984e-6,0 H 334.44 V 73.68 H 4.984e-6 Z"
         clip-rule="evenodd"
         id="path94" /></clipPath><clipPath
       clipPathUnits="userSpaceOnUse"
       id="clipPath108"><path
         d="M -3.815e-6,73.68 H 334.44 V 3.0518e-5 L -5.722e-6,2.2888e-5"
         clip-rule="evenodd"
         id="path106" /></clipPath><clipPath
       clipPathUnits="userSpaceOnUse"
       id="clipPath118"><path
         d="M -7.629e-6,73.68 H 334.44 V -7.629e-6 L -3.815e-6,0"
         clip-rule="evenodd"
         id="path116" /></clipPath><clipPath
       clipPathUnits="userSpaceOnUse"
       id="clipPath128"><path
         d="M -1.907e-6,73.68 H 334.44 V 0 H -1.907e-6"
         clip-rule="evenodd"
         id="path126" /></clipPath><clipPath
       clipPathUnits="userSpaceOnUse"
       id="clipPath138"><path
         d="M -7.629e-6,73.68 H 334.44 V 7.629e-6 H -7.629e-6"
         clip-rule="evenodd"
         id="path136" /></clipPath><clipPath
       clipPathUnits="userSpaceOnUse"
       id="clipPath148"><path
         d="M -7.629e-6,73.68 H 334.44 V 7.629e-6 H -7.629e-6"
         clip-rule="evenodd"
         id="path146" /></clipPath><clipPath
       clipPathUnits="userSpaceOnUse"
       id="clipPath158"><path
         d="M -1.5259e-5,73.68 H 334.44 V 2.2888e-5 L -1.5259e-5,1.5259e-5"
         clip-rule="evenodd"
         id="path156" /></clipPath><clipPath
       clipPathUnits="userSpaceOnUse"
       id="clipPath168"><path
         d="M -3.0518e-5,73.68 H 334.44 V 0 L -1.5259e-5,7.629e-6"
         clip-rule="evenodd"
         id="path166" /></clipPath><clipPath
       clipPathUnits="userSpaceOnUse"
       id="clipPath178"><path
         d="M -1.5259e-5,73.68 H 334.44 V -7.629e-6 L -1.5259e-5,0"
         clip-rule="evenodd"
         id="path176" /></clipPath><clipPath
       clipPathUnits="userSpaceOnUse"
       id="clipPath188"><path
         d="M -1.5259e-5,73.68 H 334.44 V 7.629e-6 H -1.5259e-5"
         clip-rule="evenodd"
         id="path186" /></clipPath><clipPath
       clipPathUnits="userSpaceOnUse"
       id="clipPath198"><path
         d="M -1.5259e-5,73.68 H 334.44 V 7.629e-6 H -1.5259e-5"
         clip-rule="evenodd"
         id="path196" /></clipPath><clipPath
       clipPathUnits="userSpaceOnUse"
       id="clipPath208"><path
         d="M -3.0518e-5,73.68 H 334.44 V 2.2888e-5 H -3.0518e-5"
         clip-rule="evenodd"
         id="path206" /></clipPath><clipPath
       clipPathUnits="userSpaceOnUse"
       id="clipPath218"><path
         d="M -4.5776e-5,73.68 H 334.44 V -7.629e-6 H -3.0518e-5"
         clip-rule="evenodd"
         id="path216" /></clipPath><clipPath
       clipPathUnits="userSpaceOnUse"
       id="clipPath228"><path
         d="M -1.5259e-5,73.68 H 334.44 V -1.5259e-5 L 0,-7.629e-6"
         clip-rule="evenodd"
         id="path226" /></clipPath><clipPath
       clipPathUnits="userSpaceOnUse"
       id="clipPath238"><path
         d="M -3.0518e-5,73.68 H 334.44 V 7.629e-6 H -3.0518e-5"
         clip-rule="evenodd"
         id="path236" /></clipPath><clipPath
       clipPathUnits="userSpaceOnUse"
       id="clipPath248"><path
         d="M -3.0518e-5,73.68 H 334.44 V 7.629e-6 H -3.0518e-5"
         clip-rule="evenodd"
         id="path246" /></clipPath><clipPath
       clipPathUnits="userSpaceOnUse"
       id="clipPath258"><path
         d="M -3.0518e-5,73.68 H 334.44 V 3.0518e-5 L -6.1035e-5,2.2888e-5"
         clip-rule="evenodd"
         id="path256" /></clipPath><clipPath
       clipPathUnits="userSpaceOnUse"
       id="clipPath268"><path
         d="M -6.1035e-5,73.68 H 334.44 V 0 H -3.0518e-5"
         clip-rule="evenodd"
         id="path266" /></clipPath><clipPath
       clipPathUnits="userSpaceOnUse"
       id="clipPath278"><path
         d="M -6.1035e-5,73.68 H 334.44 V -7.629e-6 L -3.0518e-5,0"
         clip-rule="evenodd"
         id="path276" /></clipPath><clipPath
       clipPathUnits="userSpaceOnUse"
       id="clipPath288"><path
         d="M -3.0518e-5,73.68 H 334.44 V 7.629e-6 H -3.0518e-5"
         clip-rule="evenodd"
         id="path286" /></clipPath><clipPath
       clipPathUnits="userSpaceOnUse"
       id="clipPath298"><path
         d="M -3.0518e-5,73.68 H 334.44 V 7.629e-6 H -3.0518e-5"
         clip-rule="evenodd"
         id="path296" /></clipPath><clipPath
       clipPathUnits="userSpaceOnUse"
       id="clipPath308"><path
         d="M -6.1035e-5,73.68 H 334.44 V 0 H -6.1035e-5"
         clip-rule="evenodd"
         id="path306" /></clipPath><clipPath
       clipPathUnits="userSpaceOnUse"
       id="clipPath318"><path
         d="M -3.815e-6,73.68 H 334.44 V 3.0518e-5 L -5.722e-6,2.2888e-5"
         clip-rule="evenodd"
         id="path316" /></clipPath><clipPath
       clipPathUnits="userSpaceOnUse"
       id="clipPath328"><path
         d="M -7.629e-6,73.68 H 334.44 V -7.629e-6 L -3.815e-6,0"
         clip-rule="evenodd"
         id="path326" /></clipPath><clipPath
       clipPathUnits="userSpaceOnUse"
       id="clipPath338"><path
         d="M -1.907e-6,73.68 H 334.44 V 0 H -1.907e-6"
         clip-rule="evenodd"
         id="path336" /></clipPath><clipPath
       clipPathUnits="userSpaceOnUse"
       id="clipPath348"><path
         d="M -7.629e-6,73.68 H 334.44 V 7.629e-6 H -7.629e-6"
         clip-rule="evenodd"
         id="path346" /></clipPath><clipPath
       clipPathUnits="userSpaceOnUse"
       id="clipPath358"><path
         d="M -7.629e-6,73.68 H 334.44 V 7.629e-6 H -7.629e-6"
         clip-rule="evenodd"
         id="path356" /></clipPath><clipPath
       clipPathUnits="userSpaceOnUse"
       id="clipPath368"><path
         d="M -1.5259e-5,73.68 H 334.44 V 2.2888e-5 L -1.5259e-5,1.5259e-5"
         clip-rule="evenodd"
         id="path366" /></clipPath><clipPath
       clipPathUnits="userSpaceOnUse"
       id="clipPath378"><path
         d="M -3.0518e-5,73.68 H 334.44 V 0 L -1.5259e-5,7.629e-6"
         clip-rule="evenodd"
         id="path376" /></clipPath><clipPath
       clipPathUnits="userSpaceOnUse"
       id="clipPath388"><path
         d="M -1.5259e-5,73.68 H 334.44 V -7.629e-6 L -1.5259e-5,0"
         clip-rule="evenodd"
         id="path386" /></clipPath><clipPath
       clipPathUnits="userSpaceOnUse"
       id="clipPath398"><path
         d="M -1.5259e-5,73.68 H 334.44 V 7.629e-6 H -1.5259e-5"
         clip-rule="evenodd"
         id="path396" /></clipPath><clipPath
       clipPathUnits="userSpaceOnUse"
       id="clipPath408"><path
         d="M -1.5259e-5,73.68 H 334.44 V 7.629e-6 H -1.5259e-5"
         clip-rule="evenodd"
         id="path406" /></clipPath><clipPath
       clipPathUnits="userSpaceOnUse"
       id="clipPath418"><path
         d="M -3.0518e-5,73.68 H 334.44 V 2.2888e-5 H -3.0518e-5"
         clip-rule="evenodd"
         id="path416" /></clipPath><clipPath
       clipPathUnits="userSpaceOnUse"
       id="clipPath428"><path
         d="M -4.5776e-5,73.68 H 334.44 V -7.629e-6 H -3.0518e-5"
         clip-rule="evenodd"
         id="path426" /></clipPath><clipPath
       clipPathUnits="userSpaceOnUse"
       id="clipPath438"><path
         d="M -1.5259e-5,73.68 H 334.44 V -1.5259e-5 L 0,-7.629e-6"
         clip-rule="evenodd"
         id="path436" /></clipPath><clipPath
       clipPathUnits="userSpaceOnUse"
       id="clipPath448"><path
         d="M -3.0518e-5,73.68 H 334.44 V 7.629e-6 H -3.0518e-5"
         clip-rule="evenodd"
         id="path446" /></clipPath><clipPath
       clipPathUnits="userSpaceOnUse"
       id="clipPath458"><path
         d="M -3.0518e-5,73.68 H 334.44 V 7.629e-6 H -3.0518e-5"
         clip-rule="evenodd"
         id="path456" /></clipPath><clipPath
       clipPathUnits="userSpaceOnUse"
       id="clipPath468"><path
         d="M -3.0518e-5,73.68 H 334.44 V 3.0518e-5 L -6.1035e-5,2.2888e-5"
         clip-rule="evenodd"
         id="path466" /></clipPath><clipPath
       clipPathUnits="userSpaceOnUse"
       id="clipPath478"><path
         d="M -6.1035e-5,73.68 H 334.44 V 0 H -3.0518e-5"
         clip-rule="evenodd"
         id="path476" /></clipPath><clipPath
       clipPathUnits="userSpaceOnUse"
       id="clipPath488"><path
         d="M -6.1035e-5,73.68 H 334.44 V -7.629e-6 L -3.0518e-5,0"
         clip-rule="evenodd"
         id="path486" /></clipPath><clipPath
       clipPathUnits="userSpaceOnUse"
       id="clipPath498"><path
         d="M -3.0518e-5,73.68 H 334.44 V 7.629e-6 H -3.0518e-5"
         clip-rule="evenodd"
         id="path496" /></clipPath><clipPath
       clipPathUnits="userSpaceOnUse"
       id="clipPath508"><path
         d="M -3.0518e-5,73.68 H 334.44 V 7.629e-6 H -3.0518e-5"
         clip-rule="evenodd"
         id="path506" /></clipPath><clipPath
       clipPathUnits="userSpaceOnUse"
       id="clipPath518"><path
         d="M -6.1035e-5,73.68 H 334.44 V 0 H -6.1035e-5"
         clip-rule="evenodd"
         id="path516" /></clipPath><clipPath
       clipPathUnits="userSpaceOnUse"
       id="clipPath528"><path
         d="M 0,73.68 H 334.44 V 2.2888e-5 L 0,1.5259e-5"
         clip-rule="evenodd"
         id="path526" /></clipPath><clipPath
       clipPathUnits="userSpaceOnUse"
       id="clipPath538"><path
         d="M 0,73.68 H 334.44 V 2.2888e-5 L 0,1.5259e-5"
         clip-rule="evenodd"
         id="path536" /></clipPath><clipPath
       clipPathUnits="userSpaceOnUse"
       id="clipPath548"><path
         d="M 4.984e-6,0 H 334.44 V 73.68 H 4.984e-6 Z"
         clip-rule="evenodd"
         id="path546" /></clipPath><clipPath
       clipPathUnits="userSpaceOnUse"
       id="clipPath560"><path
         d="M 4.984e-6,0 H 334.44 V 73.68 H 4.984e-6 Z"
         clip-rule="evenodd"
         id="path558" /></clipPath><clipPath
       clipPathUnits="userSpaceOnUse"
       id="clipPath572"><path
         d="M 4.984e-6,0 H 334.44 V 73.68 H 4.984e-6 Z"
         clip-rule="evenodd"
         id="path570" /></clipPath><clipPath
       clipPathUnits="userSpaceOnUse"
       id="clipPath584"><path
         d="M 4.984e-6,0 H 334.44 V 73.68 H 4.984e-6 Z"
         clip-rule="evenodd"
         id="path582" /></clipPath><clipPath
       clipPathUnits="userSpaceOnUse"
       id="clipPath596"><path
         d="M 4.984e-6,0 H 334.44 V 73.68 H 4.984e-6 Z"
         clip-rule="evenodd"
         id="path594" /></clipPath><clipPath
       clipPathUnits="userSpaceOnUse"
       id="clipPath608"><path
         d="M 4.984e-6,0 H 334.44 V 73.68 H 4.984e-6 Z"
         clip-rule="evenodd"
         id="path606" /></clipPath><clipPath
       clipPathUnits="userSpaceOnUse"
       id="clipPath620"><path
         d="M 4.984e-6,0 H 334.44 V 73.68 H 4.984e-6 Z"
         clip-rule="evenodd"
         id="path618" /></clipPath><clipPath
       clipPathUnits="userSpaceOnUse"
       id="clipPath632"><path
         d="M 4.984e-6,0 H 334.44 V 73.68 H 4.984e-6 Z"
         clip-rule="evenodd"
         id="path630" /></clipPath><clipPath
       clipPathUnits="userSpaceOnUse"
       id="clipPath644"><path
         d="M 4.984e-6,0 H 334.44 V 73.68 H 4.984e-6 Z"
         clip-rule="evenodd"
         id="path642" /></clipPath><clipPath
       clipPathUnits="userSpaceOnUse"
       id="clipPath656"><path
         d="M 4.984e-6,0 H 334.44 V 73.68 H 4.984e-6 Z"
         clip-rule="evenodd"
         id="path654" /></clipPath><clipPath
       clipPathUnits="userSpaceOnUse"
       id="clipPath668"><path
         d="M 4.984e-6,0 H 334.44 V 73.68 H 4.984e-6 Z"
         clip-rule="evenodd"
         id="path666" /></clipPath><clipPath
       clipPathUnits="userSpaceOnUse"
       id="clipPath680"><path
         d="M 4.984e-6,0 H 334.44 V 73.68 H 4.984e-6 Z"
         clip-rule="evenodd"
         id="path678" /></clipPath><clipPath
       clipPathUnits="userSpaceOnUse"
       id="clipPath692"><path
         d="M 4.984e-6,0 H 334.44 V 73.68 H 4.984e-6 Z"
         clip-rule="evenodd"
         id="path690" /></clipPath><clipPath
       clipPathUnits="userSpaceOnUse"
       id="clipPath704"><path
         d="M 4.984e-6,0 H 334.44 V 73.68 H 4.984e-6 Z"
         clip-rule="evenodd"
         id="path702" /></clipPath><clipPath
       clipPathUnits="userSpaceOnUse"
       id="clipPath716"><path
         d="M 4.984e-6,0 H 334.44 V 73.68 H 4.984e-6 Z"
         clip-rule="evenodd"
         id="path714" /></clipPath><clipPath
       clipPathUnits="userSpaceOnUse"
       id="clipPath728"><path
         d="M 4.984e-6,0 H 334.44 V 73.68 H 4.984e-6 Z"
         clip-rule="evenodd"
         id="path726" /></clipPath></defs><sodipodi:namedview
     id="namedview4"
     pagecolor="#ffffff"
     bordercolor="#666666"
     borderopacity="1.0"
     inkscape:pageshadow="2"
     inkscape:pageopacity="0.0"
     inkscape:pagecheckerboard="0"
     showgrid="false"
     fit-margin-top="0"
     fit-margin-left="0"
     fit-margin-right="0"
     fit-margin-bottom="0"
     inkscape:zoom="2.4690527"
     inkscape:cx="222.55499"
     inkscape:cy="45.15902"
     inkscape:window-width="2560"
     inkscape:window-height="1369"
     inkscape:window-x="1912"
     inkscape:window-y="-8"
     inkscape:window-maximized="1"
     inkscape:current-layer="g8" /><g
     id="g8"
     inkscape:groupmode="layer"
     inkscape:label="series_module"
     transform="matrix(1.3333333,0,0,-1.3333333,-0.35639999,94.300185)"><g
       id="g10"><g
         id="g12"
         clip-path="url(#clipPath16)"><path
           d="M 4.2519,11.343 V 41.107"
           style="fill:none;stroke:#000000;stroke-width:1;stroke-linecap:round;stroke-linejoin:round;stroke-miterlimit:10;stroke-dasharray:none;stroke-opacity:1"
           id="path18" /></g></g><g
       id="g20"><g
         id="g22"
         clip-path="url(#clipPath26)"><path
           d="M 329.2,11.537 V 41.301"
           style="fill:none;stroke:#000000;stroke-width:1;stroke-linecap:round;stroke-linejoin:round;stroke-miterlimit:10;stroke-dasharray:none;stroke-opacity:1"
           id="path28" /></g></g><g
       id="g30"><g
         id="g32"
         clip-path="url(#clipPath36)"><path
           d="m 6.5196,39.675 c -0.0061,1.174 -0.963,2.121 -2.1371,2.115 -1.1741,-0.006 -2.121,-0.963 -2.1148,-2.137 0.0061,-1.174 0.9629,-2.121 2.1371,-2.115 1.1741,0.006 2.1209,0.963 2.1148,2.137 z"
           style="fill:#ff0000;fill-opacity:1;fill-rule:evenodd;stroke:none"
           id="path38" /></g></g><g
       id="g40"><g
         id="g42"
         clip-path="url(#clipPath46)"><path
           d="m 6.5196,39.675 c -0.0061,1.174 -0.963,2.121 -2.1371,2.115 -1.1741,-0.006 -2.121,-0.963 -2.1148,-2.137 0.0061,-1.174 0.9629,-2.121 2.1371,-2.115 1.1741,0.006 2.1209,0.963 2.1148,2.137 z"
           style="fill:none;stroke:#0070c0;stroke-width:4;stroke-linecap:round;stroke-linejoin:round;stroke-miterlimit:10;stroke-dasharray:none;stroke-opacity:1"
           id="path48" /></g></g><g
       id="g50"><g
         id="g52"
         clip-path="url(#clipPath56)"><path
           d="m 331.65,39.675 c 0,1.175 -0.96,2.121 -2.13,2.115 -1.18,-0.006 -2.12,-0.963 -2.12,-2.137 0.01,-1.174 0.96,-2.121 2.14,-2.115 1.17,0.006 2.12,0.963 2.11,2.137 z"
           style="fill:#ff0000;fill-opacity:1;fill-rule:evenodd;stroke:none"
           id="path58" /></g></g><g
       id="g60"><g
         id="g62"
         clip-path="url(#clipPath66)"><path
           d="m 331.65,39.675 c 0,1.175 -0.96,2.121 -2.13,2.115 -1.18,-0.006 -2.12,-0.963 -2.12,-2.137 0.01,-1.174 0.96,-2.121 2.14,-2.115 1.17,0.006 2.12,0.963 2.11,2.137 z"
           style="fill:none;stroke:#0070c0;stroke-width:4;stroke-linecap:round;stroke-linejoin:round;stroke-miterlimit:10;stroke-dasharray:none;stroke-opacity:1"
           id="path68" /></g></g><g
       id="g70"><g
         id="g72"
         clip-path="url(#clipPath76)"><path
           d="M 119.06,65.176 C 87.514,64.719 49.321,58.4 17.684,48.405"
           style="fill:none;stroke:#0070c0;stroke-width:1;stroke-linecap:round;stroke-linejoin:round;stroke-miterlimit:10;stroke-dasharray:none;stroke-opacity:1"
           id="path78" /></g></g><g
       id="g80"><g
         id="g82"
         clip-path="url(#clipPath86)"><path
           d="M 19.635,45.346 8.5039,45.334 17.401,52.023 Z"
           style="fill:#0070c0;fill-opacity:1;fill-rule:evenodd;stroke:none"
           id="path88" /></g></g><g
       id="g90"><g
         id="g92"
         clip-path="url(#clipPath96)"><text
           transform="matrix(1,0,0,-1,126.91,60.96)"
           style="font-variant:normal;font-weight:normal;font-size:14.064px;font-family:'Times New Roman';-inkscape-font-specification:TimesNewRomanPSMT;writing-mode:lr-tb;fill:#0070c0;fill-opacity:1;fill-rule:nonzero;stroke:none"
           id="text100"><tspan
             x="0 7.8195839 14.064 18.747313 22.558657 28.803072 34.203648 37.719646 48.605183 55.566864 62.626991 69.588669 73.428146"
             y="0"
             sodipodi:role="line"
             id="tspan98">Series module</tspan></text></g></g><g
       id="g102"><g
         id="g104"
         clip-path="url(#clipPath108)"><path
           d="M 21.827,11.322 23.945,16.483 28.291,6.2064 32.529,16.528 36.873,6.2513 41.11,16.573 45.456,6.2963 47.574,11.457"
           style="fill:none;stroke:#000000;stroke-width:1;stroke-linecap:round;stroke-linejoin:round;stroke-miterlimit:10;stroke-dasharray:none;stroke-opacity:1"
           id="path110" /></g></g><g
       id="g112"><g
         id="g114"
         clip-path="url(#clipPath118)"><path
           d="M 58.11,11.551 47.574,11.457"
           style="fill:none;stroke:#000000;stroke-width:1;stroke-linecap:round;stroke-linejoin:round;stroke-miterlimit:10;stroke-dasharray:none;stroke-opacity:1"
           id="path120" /></g></g><g
       id="g122"><g
         id="g124"
         clip-path="url(#clipPath128)"><path
           d="M 21.827,11.322 4.2519,11.343"
           style="fill:none;stroke:#000000;stroke-width:1;stroke-linecap:round;stroke-linejoin:round;stroke-miterlimit:10;stroke-dasharray:none;stroke-opacity:1"
           id="path130" /></g></g><g
       id="g132"><g
         id="g134"
         clip-path="url(#clipPath138)"><path
           d="m 70.776,2.8143 h 1.988 V 20.205 h -1.988 z m -3.975,0 h 1.988 V 20.205 h -1.988 z"
           style="fill:#000000;fill-opacity:1;fill-rule:evenodd;stroke:none"
           id="path140" /></g></g><g
       id="g142"><g
         id="g144"
         clip-path="url(#clipPath148)"><path
           d="m 57.36,11.551 h 9.69 m 5.465,0 h 9.69"
           style="fill:none;stroke:#000000;stroke-width:0.99378;stroke-linecap:butt;stroke-linejoin:miter;stroke-miterlimit:10;stroke-dasharray:none;stroke-opacity:1"
           id="path150" /></g></g><g
       id="g152"><g
         id="g154"
         clip-path="url(#clipPath158)"><path
           d="m 99.78,11.53 2.12,5.161 4.34,-10.2767 4.24,10.3217 4.35,-10.2767 4.23,10.3217 4.35,-10.2768 2.12,5.1608"
           style="fill:none;stroke:#000000;stroke-width:1;stroke-linecap:round;stroke-linejoin:round;stroke-miterlimit:10;stroke-dasharray:none;stroke-opacity:1"
           id="path160" /></g></g><g
       id="g162"><g
         id="g164"
         clip-path="url(#clipPath168)"><path
           d="m 135.92,11.551 -10.39,0.114"
           style="fill:none;stroke:#000000;stroke-width:1;stroke-linecap:round;stroke-linejoin:round;stroke-miterlimit:10;stroke-dasharray:none;stroke-opacity:1"
           id="path170" /></g></g><g
       id="g172"><g
         id="g174"
         clip-path="url(#clipPath178)"><path
           d="M 99.78,11.53 82.205,11.551"
           style="fill:none;stroke:#000000;stroke-width:1;stroke-linecap:round;stroke-linejoin:round;stroke-miterlimit:10;stroke-dasharray:none;stroke-opacity:1"
           id="path180" /></g></g><g
       id="g182"><g
         id="g184"
         clip-path="url(#clipPath188)"><path
           d="m 148.59,2.8143 h 1.98 V 20.205 h -1.98 z m -3.98,0 h 1.99 V 20.205 h -1.99 z"
           style="fill:#000000;fill-opacity:1;fill-rule:evenodd;stroke:none"
           id="path190" /></g></g><g
       id="g192"><g
         id="g194"
         clip-path="url(#clipPath198)"><path
           d="m 135.17,11.551 h 9.69 m 5.47,0 h 9.69"
           style="fill:none;stroke:#000000;stroke-width:0.99378;stroke-linecap:butt;stroke-linejoin:miter;stroke-miterlimit:10;stroke-dasharray:none;stroke-opacity:1"
           id="path200" /></g></g><g
       id="g202"><g
         id="g204"
         clip-path="url(#clipPath208)"><path
           d="m 179.32,11.484 2.11,5.16 4.35,-10.2762 4.24,10.3212 4.34,-10.2762 4.24,10.3212 4.34,-10.2763 2.12,5.1603"
           style="fill:none;stroke:#000000;stroke-width:1;stroke-linecap:round;stroke-linejoin:round;stroke-miterlimit:10;stroke-dasharray:none;stroke-opacity:1"
           id="path210" /></g></g><g
       id="g212"><g
         id="g214"
         clip-path="url(#clipPath218)"><path
           d="m 215.43,11.551 -10.37,0.067"
           style="fill:none;stroke:#000000;stroke-width:1;stroke-linecap:round;stroke-linejoin:round;stroke-miterlimit:10;stroke-dasharray:none;stroke-opacity:1"
           id="path220" /></g></g><g
       id="g222"><g
         id="g224"
         clip-path="url(#clipPath228)"><path
           d="m 179.32,11.484 -19.3,0.067"
           style="fill:none;stroke:#000000;stroke-width:1;stroke-linecap:round;stroke-linejoin:round;stroke-miterlimit:10;stroke-dasharray:none;stroke-opacity:1"
           id="path230" /></g></g><g
       id="g232"><g
         id="g234"
         clip-path="url(#clipPath238)"><path
           d="m 228.1,2.8143 h 1.99 V 20.205 h -1.99 z m -3.98,0 h 1.99 V 20.205 h -1.99 z"
           style="fill:#000000;fill-opacity:1;fill-rule:evenodd;stroke:none"
           id="path240" /></g></g><g
       id="g242"><g
         id="g244"
         clip-path="url(#clipPath248)"><path
           d="m 214.68,11.551 h 9.69 m 5.47,0 h 9.69"
           style="fill:none;stroke:#000000;stroke-width:0.99378;stroke-linecap:butt;stroke-linejoin:miter;stroke-miterlimit:10;stroke-dasharray:none;stroke-opacity:1"
           id="path250" /></g></g><g
       id="g252"><g
         id="g254"
         clip-path="url(#clipPath258)"><path
           d="m 257.1,11.53 2.12,5.161 4.35,-10.2767 4.23,10.3217 4.35,-10.2767 4.24,10.3217 4.34,-10.2768 2.12,5.1608"
           style="fill:none;stroke:#000000;stroke-width:1;stroke-linecap:round;stroke-linejoin:round;stroke-miterlimit:10;stroke-dasharray:none;stroke-opacity:1"
           id="path260" /></g></g><g
       id="g262"><g
         id="g264"
         clip-path="url(#clipPath268)"><path
           d="m 293.24,11.551 -10.39,0.114"
           style="fill:none;stroke:#000000;stroke-width:1;stroke-linecap:round;stroke-linejoin:round;stroke-miterlimit:10;stroke-dasharray:none;stroke-opacity:1"
           id="path270" /></g></g><g
       id="g272"><g
         id="g274"
         clip-path="url(#clipPath278)"><path
           d="m 257.1,11.53 -17.57,0.021"
           style="fill:none;stroke:#000000;stroke-width:1;stroke-linecap:round;stroke-linejoin:round;stroke-miterlimit:10;stroke-dasharray:none;stroke-opacity:1"
           id="path280" /></g></g><g
       id="g282"><g
         id="g284"
         clip-path="url(#clipPath288)"><path
           d="m 305.91,2.8143 h 1.99 V 20.205 h -1.99 z m -3.97,0 h 1.98 V 20.205 h -1.98 z"
           style="fill:#000000;fill-opacity:1;fill-rule:evenodd;stroke:none"
           id="path290" /></g></g><g
       id="g292"><g
         id="g294"
         clip-path="url(#clipPath298)"><path
           d="m 292.49,11.551 h 9.69 m 5.47,0 h 9.69"
           style="fill:none;stroke:#000000;stroke-width:0.99378;stroke-linecap:butt;stroke-linejoin:miter;stroke-miterlimit:10;stroke-dasharray:none;stroke-opacity:1"
           id="path300" /></g></g><g
       id="g302"><g
         id="g304"
         clip-path="url(#clipPath308)"><path
           d="m 329.2,11.537 -11.86,0.014"
           style="fill:none;stroke:#000000;stroke-width:1;stroke-linecap:round;stroke-linejoin:round;stroke-miterlimit:10;stroke-dasharray:none;stroke-opacity:1"
           id="path310" /></g></g><g
       id="g312"><g
         id="g314"
         clip-path="url(#clipPath318)"><path
           d="M 21.827,11.322 23.945,16.483 28.291,6.2064 32.529,16.528 36.873,6.2513 41.11,16.573 45.456,6.2963 47.574,11.457"
           style="fill:none;stroke:#000000;stroke-width:1;stroke-linecap:round;stroke-linejoin:round;stroke-miterlimit:10;stroke-dasharray:none;stroke-opacity:1"
           id="path320" /></g></g><g
       id="g322"><g
         id="g324"
         clip-path="url(#clipPath328)"><path
           d="M 58.11,11.551 47.574,11.457"
           style="fill:none;stroke:#000000;stroke-width:1;stroke-linecap:round;stroke-linejoin:round;stroke-miterlimit:10;stroke-dasharray:none;stroke-opacity:1"
           id="path330" /></g></g><g
       id="g332"><g
         id="g334"
         clip-path="url(#clipPath338)"><path
           d="M 21.827,11.322 4.2519,11.343"
           style="fill:none;stroke:#000000;stroke-width:1;stroke-linecap:round;stroke-linejoin:round;stroke-miterlimit:10;stroke-dasharray:none;stroke-opacity:1"
           id="path340" /></g></g><g
       id="g342"><g
         id="g344"
         clip-path="url(#clipPath348)"><path
           d="m 70.776,2.8143 h 1.988 V 20.205 h -1.988 z m -3.975,0 h 1.988 V 20.205 h -1.988 z"
           style="fill:#000000;fill-opacity:1;fill-rule:evenodd;stroke:none"
           id="path350" /></g></g><g
       id="g352"><g
         id="g354"
         clip-path="url(#clipPath358)"><path
           d="m 57.36,11.551 h 9.69 m 5.465,0 h 9.69"
           style="fill:none;stroke:#000000;stroke-width:0.99378;stroke-linecap:butt;stroke-linejoin:miter;stroke-miterlimit:10;stroke-dasharray:none;stroke-opacity:1"
           id="path360" /></g></g><g
       id="g362"><g
         id="g364"
         clip-path="url(#clipPath368)"><path
           d="m 99.78,11.53 2.12,5.161 4.34,-10.2767 4.24,10.3217 4.35,-10.2767 4.23,10.3217 4.35,-10.2768 2.12,5.1608"
           style="fill:none;stroke:#000000;stroke-width:1;stroke-linecap:round;stroke-linejoin:round;stroke-miterlimit:10;stroke-dasharray:none;stroke-opacity:1"
           id="path370" /></g></g><g
       id="g372"><g
         id="g374"
         clip-path="url(#clipPath378)"><path
           d="m 135.92,11.551 -10.39,0.114"
           style="fill:none;stroke:#000000;stroke-width:1;stroke-linecap:round;stroke-linejoin:round;stroke-miterlimit:10;stroke-dasharray:none;stroke-opacity:1"
           id="path380" /></g></g><g
       id="g382"><g
         id="g384"
         clip-path="url(#clipPath388)"><path
           d="M 99.78,11.53 82.205,11.551"
           style="fill:none;stroke:#000000;stroke-width:1;stroke-linecap:round;stroke-linejoin:round;stroke-miterlimit:10;stroke-dasharray:none;stroke-opacity:1"
           id="path390" /></g></g><g
       id="g392"><g
         id="g394"
         clip-path="url(#clipPath398)"><path
           d="m 148.59,2.8143 h 1.98 V 20.205 h -1.98 z m -3.98,0 h 1.99 V 20.205 h -1.99 z"
           style="fill:#000000;fill-opacity:1;fill-rule:evenodd;stroke:none"
           id="path400" /></g></g><g
       id="g402"><g
         id="g404"
         clip-path="url(#clipPath408)"><path
           d="m 135.17,11.551 h 9.69 m 5.47,0 h 9.69"
           style="fill:none;stroke:#000000;stroke-width:0.99378;stroke-linecap:butt;stroke-linejoin:miter;stroke-miterlimit:10;stroke-dasharray:none;stroke-opacity:1"
           id="path410" /></g></g><g
       id="g412"><g
         id="g414"
         clip-path="url(#clipPath418)"><path
           d="m 179.32,11.484 2.11,5.16 4.35,-10.2762 4.24,10.3212 4.34,-10.2762 4.24,10.3212 4.34,-10.2763 2.12,5.1603"
           style="fill:none;stroke:#000000;stroke-width:1;stroke-linecap:round;stroke-linejoin:round;stroke-miterlimit:10;stroke-dasharray:none;stroke-opacity:1"
           id="path420" /></g></g><g
       id="g422"><g
         id="g424"
         clip-path="url(#clipPath428)"><path
           d="m 215.43,11.551 -10.37,0.067"
           style="fill:none;stroke:#000000;stroke-width:1;stroke-linecap:round;stroke-linejoin:round;stroke-miterlimit:10;stroke-dasharray:none;stroke-opacity:1"
           id="path430" /></g></g><g
       id="g432"><g
         id="g434"
         clip-path="url(#clipPath438)"><path
           d="m 179.32,11.484 -19.3,0.067"
           style="fill:none;stroke:#000000;stroke-width:1;stroke-linecap:round;stroke-linejoin:round;stroke-miterlimit:10;stroke-dasharray:none;stroke-opacity:1"
           id="path440" /></g></g><g
       id="g442"><g
         id="g444"
         clip-path="url(#clipPath448)"><path
           d="m 228.1,2.8143 h 1.99 V 20.205 h -1.99 z m -3.98,0 h 1.99 V 20.205 h -1.99 z"
           style="fill:#000000;fill-opacity:1;fill-rule:evenodd;stroke:none"
           id="path450" /></g></g><g
       id="g452"><g
         id="g454"
         clip-path="url(#clipPath458)"><path
           d="m 214.68,11.551 h 9.69 m 5.47,0 h 9.69"
           style="fill:none;stroke:#000000;stroke-width:0.99378;stroke-linecap:butt;stroke-linejoin:miter;stroke-miterlimit:10;stroke-dasharray:none;stroke-opacity:1"
           id="path460" /></g></g><g
       id="g462"><g
         id="g464"
         clip-path="url(#clipPath468)"><path
           d="m 257.1,11.53 2.12,5.161 4.35,-10.2767 4.23,10.3217 4.35,-10.2767 4.24,10.3217 4.34,-10.2768 2.12,5.1608"
           style="fill:none;stroke:#000000;stroke-width:1;stroke-linecap:round;stroke-linejoin:round;stroke-miterlimit:10;stroke-dasharray:none;stroke-opacity:1"
           id="path470" /></g></g><g
       id="g472"><g
         id="g474"
         clip-path="url(#clipPath478)"><path
           d="m 293.24,11.551 -10.39,0.114"
           style="fill:none;stroke:#000000;stroke-width:1;stroke-linecap:round;stroke-linejoin:round;stroke-miterlimit:10;stroke-dasharray:none;stroke-opacity:1"
           id="path480" /></g></g><g
       id="g482"><g
         id="g484"
         clip-path="url(#clipPath488)"><path
           d="m 257.1,11.53 -17.57,0.021"
           style="fill:none;stroke:#000000;stroke-width:1;stroke-linecap:round;stroke-linejoin:round;stroke-miterlimit:10;stroke-dasharray:none;stroke-opacity:1"
           id="path490" /></g></g><g
       id="g492"><g
         id="g494"
         clip-path="url(#clipPath498)"><path
           d="m 305.91,2.8143 h 1.99 V 20.205 h -1.99 z m -3.97,0 h 1.98 V 20.205 h -1.98 z"
           style="fill:#000000;fill-opacity:1;fill-rule:evenodd;stroke:none"
           id="path500" /></g></g><g
       id="g502"><g
         id="g504"
         clip-path="url(#clipPath508)"><path
           d="m 292.49,11.551 h 9.69 m 5.47,0 h 9.69"
           style="fill:none;stroke:#000000;stroke-width:0.99378;stroke-linecap:butt;stroke-linejoin:miter;stroke-miterlimit:10;stroke-dasharray:none;stroke-opacity:1"
           id="path510" /></g></g><g
       id="g512"><g
         id="g514"
         clip-path="url(#clipPath518)"><path
           d="m 329.2,11.537 -11.86,0.014"
           style="fill:none;stroke:#000000;stroke-width:1;stroke-linecap:round;stroke-linejoin:round;stroke-miterlimit:10;stroke-dasharray:none;stroke-opacity:1"
           id="path520" /></g></g><g
       id="g522"><g
         id="g524"
         clip-path="url(#clipPath528)"><path
           d="M 212.6,65.176 C 244.14,64.719 282.33,58.4 313.97,48.405"
           style="fill:none;stroke:#0070c0;stroke-width:1;stroke-linecap:round;stroke-linejoin:round;stroke-miterlimit:10;stroke-dasharray:none;stroke-opacity:1"
           id="path530" /></g></g><g
       id="g532"><g
         id="g534"
         clip-path="url(#clipPath538)"><path
           d="m 312.02,45.346 11.13,-0.012 -8.9,6.689 z"
           style="fill:#0070c0;fill-opacity:1;fill-rule:evenodd;stroke:none"
           id="path540" /></g></g><g
       id="g542"><g
         id="g544"
         clip-path="url(#clipPath548)"><text
           transform="matrix(1,0,0,-1,30.912,21.936)"
           style="font-variant:normal;font-weight:normal;font-size:12.024px;font-family:'Times New Roman';-inkscape-font-specification:TimesNewRomanPSMT;writing-mode:lr-tb;fill:#000000;fill-opacity:1;fill-rule:nonzero;stroke:none"
           id="text552"><tspan
             x="0"
             y="0"
             id="tspan550">R</tspan></text></g></g><g
       id="g554"><g
         id="g556"
         clip-path="url(#clipPath560)"><text
           transform="matrix(1,0,0,-1,38.904,20.232)"
           style="font-variant:normal;font-weight:normal;font-size:7.824px;font-family:'Times New Roman';-inkscape-font-specification:TimesNewRomanPSMT;writing-mode:lr-tb;fill:#000000;fill-opacity:1;fill-rule:nonzero;stroke:none"
           id="text564"><tspan
             x="0"
             y="0"
             id="tspan562">1</tspan></text></g></g><g
       id="g566"><g
         id="g568"
         clip-path="url(#clipPath572)"><text
           transform="matrix(1,0,0,-1,107.47,21.936)"
           style="font-variant:normal;font-weight:normal;font-size:12.024px;font-family:'Times New Roman';-inkscape-font-specification:TimesNewRomanPSMT;writing-mode:lr-tb;fill:#000000;fill-opacity:1;fill-rule:nonzero;stroke:none"
           id="text576"><tspan
             x="0"
             y="0"
             id="tspan574">R</tspan></text></g></g><g
       id="g578"><g
         id="g580"
         clip-path="url(#clipPath584)"><text
           transform="matrix(1,0,0,-1,115.46,20.232)"
           style="font-variant:normal;font-weight:normal;font-size:7.824px;font-family:'Times New Roman';-inkscape-font-specification:TimesNewRomanPSMT;writing-mode:lr-tb;fill:#000000;fill-opacity:1;fill-rule:nonzero;stroke:none"
           id="text588"><tspan
             x="0"
             y="0"
             id="tspan586">2</tspan></text></g></g><g
       id="g590"><g
         id="g592"
         clip-path="url(#clipPath596)"><text
           transform="matrix(1,0,0,-1,184.03,21.936)"
           style="font-variant:normal;font-weight:normal;font-size:12.024px;font-family:'Times New Roman';-inkscape-font-specification:TimesNewRomanPSMT;writing-mode:lr-tb;fill:#000000;fill-opacity:1;fill-rule:nonzero;stroke:none"
           id="text600"><tspan
             x="0"
             y="0"
             id="tspan598">R</tspan></text></g></g><g
       id="g602"><g
         id="g604"
         clip-path="url(#clipPath608)"><text
           transform="matrix(1,0,0,-1,192.02,20.232)"
           style="font-variant:normal;font-weight:normal;font-size:7.824px;font-family:'Times New Roman';-inkscape-font-specification:TimesNewRomanPSMT;writing-mode:lr-tb;fill:#000000;fill-opacity:1;fill-rule:nonzero;stroke:none"
           id="text612"><tspan
             x="0"
             y="0"
             id="tspan610">3</tspan></text></g></g><g
       id="g614"><g
         id="g616"
         clip-path="url(#clipPath620)"><text
           transform="matrix(1,0,0,-1,265.06,21.936)"
           style="font-variant:normal;font-weight:normal;font-size:12.024px;font-family:'Times New Roman';-inkscape-font-specification:TimesNewRomanPSMT;writing-mode:lr-tb;fill:#000000;fill-opacity:1;fill-rule:nonzero;stroke:none"
           id="text624"><tspan
             x="0"
             y="0"
             id="tspan622">R</tspan></text></g></g><g
       id="g626"><g
         id="g628"
         clip-path="url(#clipPath632)"><text
           transform="matrix(1,0,0,-1,273.07,20.232)"
           style="font-variant:normal;font-weight:normal;font-size:7.824px;font-family:'Times New Roman';-inkscape-font-specification:TimesNewRomanPSMT;writing-mode:lr-tb;fill:#000000;fill-opacity:1;fill-rule:nonzero;stroke:none"
           id="text636"><tspan
             x="0"
             y="0"
             id="tspan634">4</tspan></text></g></g><g
       id="g638"><g
         id="g640"
         clip-path="url(#clipPath644)"><text
           transform="matrix(1,0,0,-1,60.456,23.352)"
           style="font-variant:normal;font-weight:normal;font-size:12px;font-family:'Times New Roman';-inkscape-font-specification:TimesNewRomanPSMT;writing-mode:lr-tb;fill:#000000;fill-opacity:1;fill-rule:nonzero;stroke:none"
           id="text648"><tspan
             x="0 6.7199998"
             y="0"
             sodipodi:role="line"
             id="tspan646">SU</tspan></text></g></g><g
       id="g650"><g
         id="g652"
         clip-path="url(#clipPath656)"><text
           transform="matrix(1,0,0,-1,75.792,21.648)"
           style="font-variant:normal;font-weight:normal;font-size:7.824px;font-family:'Times New Roman';-inkscape-font-specification:TimesNewRomanPSMT;writing-mode:lr-tb;fill:#000000;fill-opacity:1;fill-rule:nonzero;stroke:none"
           id="text660"><tspan
             x="0"
             y="0"
             id="tspan658">1</tspan></text></g></g><g
       id="g662"><g
         id="g664"
         clip-path="url(#clipPath668)"><text
           transform="matrix(1,0,0,-1,138.65,23.352)"
           style="font-variant:normal;font-weight:normal;font-size:12px;font-family:'Times New Roman';-inkscape-font-specification:TimesNewRomanPSMT;writing-mode:lr-tb;fill:#000000;fill-opacity:1;fill-rule:nonzero;stroke:none"
           id="text672"><tspan
             x="0 6.7199998"
             y="0"
             sodipodi:role="line"
             id="tspan670">SU</tspan></text></g></g><g
       id="g674"><g
         id="g676"
         clip-path="url(#clipPath680)"><text
           transform="matrix(1,0,0,-1,153.98,21.648)"
           style="font-variant:normal;font-weight:normal;font-size:7.824px;font-family:'Times New Roman';-inkscape-font-specification:TimesNewRomanPSMT;writing-mode:lr-tb;fill:#000000;fill-opacity:1;fill-rule:nonzero;stroke:none"
           id="text684"><tspan
             x="0"
             y="0"
             id="tspan682">2</tspan></text></g></g><g
       id="g686"><g
         id="g688"
         clip-path="url(#clipPath692)"><text
           transform="matrix(1,0,0,-1,218.04,23.352)"
           style="font-variant:normal;font-weight:normal;font-size:12px;font-family:'Times New Roman';-inkscape-font-specification:TimesNewRomanPSMT;writing-mode:lr-tb;fill:#000000;fill-opacity:1;fill-rule:nonzero;stroke:none"
           id="text696"><tspan
             x="0 6.7199998"
             y="0"
             sodipodi:role="line"
             id="tspan694">SU</tspan></text></g></g><g
       id="g698"><g
         id="g700"
         clip-path="url(#clipPath704)"><text
           transform="matrix(1,0,0,-1,233.38,21.648)"
           style="font-variant:normal;font-weight:normal;font-size:7.824px;font-family:'Times New Roman';-inkscape-font-specification:TimesNewRomanPSMT;writing-mode:lr-tb;fill:#000000;fill-opacity:1;fill-rule:nonzero;stroke:none"
           id="text708"><tspan
             x="0"
             y="0"
             id="tspan706">3</tspan></text></g></g><g
       id="g710"><g
         id="g712"
         clip-path="url(#clipPath716)"><text
           transform="matrix(1,0,0,-1,295.8,23.352)"
           style="font-variant:normal;font-weight:normal;font-size:12px;font-family:'Times New Roman';-inkscape-font-specification:TimesNewRomanPSMT;writing-mode:lr-tb;fill:#000000;fill-opacity:1;fill-rule:nonzero;stroke:none"
           id="text720"><tspan
             x="0 6.7199998"
             y="0"
             sodipodi:role="line"
             id="tspan718">SU</tspan></text></g></g><g
       id="g722"><g
         id="g724"
         clip-path="url(#clipPath728)"><text
           transform="matrix(1,0,0,-1,311.14,21.648)"
           style="font-variant:normal;font-weight:normal;font-size:7.824px;font-family:'Times New Roman';-inkscape-font-specification:TimesNewRomanPSMT;writing-mode:lr-tb;fill:#000000;fill-opacity:1;fill-rule:nonzero;stroke:none"
           id="text732"><tspan
             x="0"
             y="0"
             id="tspan730">4</tspan></text></g></g></g></svg>
